<?xml version="1.0" encoding="UTF-8"?>
<svg version="1.1" xmlns="http://www.w3.org/2000/svg" width="215" height="235">
<path d="M0 0 C70.95 0 141.9 0 215 0 C215 77.55 215 155.1 215 235 C144.05 235 73.1 235 0 235 C0 157.45 0 79.9 0 0 Z " fill="#1F1F56" transform="translate(0,0)"/>
<path d="M0 0 C7.94055423 4.92314362 13.48942742 10.97361531 17.34375 19.453125 C17.67375 20.113125 18.00375 20.773125 18.34375 21.453125 C18.383742 23.45272512 18.38721799 25.45359742 18.34375 27.453125 C19.7359375 27.329375 19.7359375 27.329375 21.15625 27.203125 C28.84495471 27.23425336 36.58241174 30.7718885 42.4921875 35.55078125 C48.49961741 41.7229719 53.34375 49.711232 53.34375 58.453125 C54.33375 58.535625 55.32375 58.618125 56.34375 58.703125 C63.13361516 59.69074175 69.76095818 63.35012438 74.34375 68.453125 C79.44910091 75.6348148 82.78231407 82.46256159 82.34375 91.453125 C79.04375 91.453125 75.74375 91.453125 72.34375 91.453125 C72.09625 90.091875 71.84875 88.730625 71.59375 87.328125 C69.95379933 80.06223244 66.20988234 75.76293651 60.34375 71.453125 C53.61599597 68.10685991 44.68081629 68.15442131 37.5390625 70.29296875 C32.05736208 73.03381896 28.71753572 76.82785127 26.34375 82.453125 C25.45632924 85.46101431 24.8767195 88.35221155 24.34375 91.453125 C20.38375 91.453125 16.42375 91.453125 12.34375 91.453125 C12.34375 120.163125 12.34375 148.873125 12.34375 178.453125 C25.87375 178.453125 39.40375 178.453125 53.34375 178.453125 C53.34375 181.423125 53.34375 184.393125 53.34375 187.453125 C36.84375 187.453125 20.34375 187.453125 3.34375 187.453125 C3.34375 149.833125 3.34375 112.213125 3.34375 73.453125 C1.36375 72.463125 1.36375 72.463125 -0.65625 71.453125 C-1.31625 71.123125 -1.97625 70.793125 -2.65625 70.453125 C-2.98625 109.063125 -3.31625 147.673125 -3.65625 187.453125 C-6.95625 187.453125 -10.25625 187.453125 -13.65625 187.453125 C-13.74982325 170.00678562 -13.82029267 152.56052491 -13.86349869 135.11399174 C-13.88409607 127.01267657 -13.91216236 118.91151762 -13.95800781 110.81030273 C-13.99796241 103.74665752 -14.02370334 96.68312548 -14.03260398 89.6193704 C-14.03780422 85.88148605 -14.04996698 82.14392538 -14.07917023 78.4061451 C-14.11155936 74.22642985 -14.1122039 70.04727208 -14.11035156 65.86743164 C-14.12473267 64.63743942 -14.13911377 63.4074472 -14.15393066 62.1401825 C-14.1048046 51.88120186 -11.58037554 44.777828 -4.58984375 37.24609375 C-0.49053704 33.44491844 3.84220884 30.61198622 9.34375 29.453125 C7.58198349 20.93792021 4.55064568 15.68165716 -2.65625 10.453125 C-9.13596344 6.83943866 -15.13524583 6.38022998 -22.2734375 8.07421875 C-29.47588238 10.53706084 -34.09537274 14.88884036 -37.8046875 21.5 C-38.9357006 24.09406675 -39.27553612 26.66122321 -39.65625 29.453125 C-38.79 29.700625 -37.92375 29.948125 -37.03125 30.203125 C-28.64384427 33.30957157 -22.58738022 39.35715011 -18.57769775 47.27024841 C-15.92396148 53.38068471 -16.12534528 59.29858323 -16.20214844 65.86743164 C-16.20156433 67.18547791 -16.20098022 68.50352417 -16.20037842 69.86151123 C-16.19923786 73.44992939 -16.22263894 77.03780505 -16.25067425 80.62609792 C-16.27579887 84.38566743 -16.27803857 88.14525145 -16.28277588 91.90489197 C-16.29517336 99.01269591 -16.32795079 106.12025169 -16.36817384 113.2279467 C-16.41299254 121.3247014 -16.43490388 129.42146838 -16.45495558 137.51831639 C-16.49668667 154.16339751 -16.56697529 170.80822951 -16.65625 187.453125 C-19.95625 187.453125 -23.25625 187.453125 -26.65625 187.453125 C-26.98625 148.843125 -27.31625 110.233125 -27.65625 70.453125 C-29.63625 71.938125 -29.63625 71.938125 -31.65625 73.453125 C-32.31625 73.453125 -32.97625 73.453125 -33.65625 73.453125 C-33.65625 111.073125 -33.65625 148.693125 -33.65625 187.453125 C-50.15625 187.453125 -66.65625 187.453125 -83.65625 187.453125 C-83.65625 184.483125 -83.65625 181.513125 -83.65625 178.453125 C-70.12625 178.453125 -56.59625 178.453125 -42.65625 178.453125 C-42.65625 149.743125 -42.65625 121.033125 -42.65625 91.453125 C-46.61625 91.453125 -50.57625 91.453125 -54.65625 91.453125 C-54.883125 90.133125 -55.11 88.813125 -55.34375 87.453125 C-56.73352233 81.44023247 -58.76351275 76.75391216 -63.6796875 72.84375 C-70.87352503 68.58958694 -78.5050319 68.32505464 -86.65625 69.453125 C-92.04664257 71.3923516 -96.89546816 75.39169163 -99.65625 80.453125 C-100.89617652 84.07291049 -101.83855276 87.7169799 -102.65625 91.453125 C-105.95625 91.453125 -109.25625 91.453125 -112.65625 91.453125 C-113.66479503 82.71240142 -109.77917058 75.8317199 -104.78125 68.82421875 C-100.21601061 63.73028436 -93.86370286 59.36366733 -86.96875 58.515625 C-85.875625 58.495 -84.7825 58.474375 -83.65625 58.453125 C-83.5634375 56.7515625 -83.5634375 56.7515625 -83.46875 55.015625 C-82.4861615 47.09876908 -77.37742488 39.41936504 -71.2109375 34.50390625 C-63.75144933 29.66502544 -57.54708094 27.453125 -48.65625 27.453125 C-48.8109375 26.2775 -48.8109375 26.2775 -48.96875 25.078125 C-48.27543013 17.03561451 -43.68104989 10.62708155 -37.9140625 5.2109375 C-27.2946662 -3.05675858 -12.44745989 -5.89179768 0 0 Z " fill="#F9EC0C" transform="translate(122.65625,14.546875)"/>
<path d="M0 0 C4.83788262 3.37922454 9.20405597 8.05320178 11.33203125 13.62890625 C11.45703125 16.87890625 11.45703125 16.87890625 11.33203125 19.62890625 C10.63078125 19.95761719 9.92953125 20.28632812 9.20703125 20.625 C0.25214084 25.11461218 -6.52270126 30.45736497 -10.02982521 40.12011719 C-11.34681536 45.29771483 -11.10652066 50.61840419 -11.1003418 55.9296875 C-11.11053345 57.24758774 -11.1207251 58.56548798 -11.13122559 59.92332458 C-11.15867554 63.51573382 -11.16806362 67.10798476 -11.17407966 70.70048523 C-11.1834948 74.46282151 -11.2097006 78.22504101 -11.23408508 81.98730469 C-11.27766773 89.1020828 -11.30626514 96.21683815 -11.32940847 103.33170891 C-11.35650444 111.43579807 -11.40041313 119.53976927 -11.44569719 127.64377403 C-11.53842544 144.30542487 -11.6101601 160.96709688 -11.66796875 177.62890625 C-12.65796875 177.62890625 -13.64796875 177.62890625 -14.66796875 177.62890625 C-14.66943531 176.94144853 -14.67090187 176.2539908 -14.67241287 175.54570103 C-14.70951621 158.7935906 -14.76857748 142.04171466 -14.85187149 125.28977299 C-14.89162674 117.18854008 -14.92403702 109.08740382 -14.93896484 100.98608398 C-14.95199966 93.9223289 -14.97901074 86.85878678 -15.02258182 79.79515165 C-15.04515579 76.0573472 -15.06088189 72.31980501 -15.0598526 68.58192635 C-15.05896411 64.40205567 -15.08928783 60.22295521 -15.12207031 56.04321289 C-15.11703995 54.81322067 -15.11200958 53.58322845 -15.10682678 52.31596375 C-15.22865359 42.26108526 -17.6850324 34.9385083 -24.51953125 27.4921875 C-28.44226669 24.09010603 -33.00530738 21.85484224 -37.66796875 19.62890625 C-37.95770464 13.44787397 -36.42987774 10.38829111 -32.66796875 5.62890625 C-23.70109764 -4.05618512 -11.68609982 -6.45956069 0 0 Z " fill="#1E1E56" transform="translate(120.66796875,24.37109375)"/>
<path d="M0 0 C3.52791888 3.13511967 6.13680473 6.65824222 8 11 C8.125 14.25 8.125 14.25 8 17 C7.38253906 17.13535156 6.76507813 17.27070312 6.12890625 17.41015625 C-3.25805724 19.79618807 -9.51884482 24.09834179 -14.5625 32.4375 C-15.39336926 33.94837609 -16.21287579 35.46587948 -17 37 C-18.7317931 34.73159495 -20.31091232 32.49610763 -21.8125 30.0625 C-26.17852007 23.9500719 -31.33368691 21.10328368 -38 18 C-37.42807982 10.99397775 -35.23019079 6.23019079 -30.25 1.25 C-20.5420279 -5.47090376 -10.33169135 -6.01658766 0 0 Z " fill="#1E1E56" transform="translate(157,56)"/>
<path d="M0 0 C7.12907242 4.07865201 10.14907564 9.12663759 12.5625 16.875 C12.5625 17.865 12.5625 18.855 12.5625 19.875 C11.92183594 20.143125 11.28117187 20.41125 10.62109375 20.6875 C1.90602118 24.63590844 -3.684866 30.04527293 -7.4375 38.875 C-9.85034981 36.65263833 -11.3993278 34.37822136 -13.0625 31.5625 C-18.00355981 24.04083716 -25.08486824 20.60858858 -33.4375 17.875 C-32.90332267 11.19778336 -30.99487591 7.23047781 -26.0625 2.6875 C-17.77308433 -3.03614416 -9.37999829 -4.3464865 0 0 Z " fill="#1E1E56" transform="translate(83.4375,54.125)"/>
<path d="M0 0 C70.95 0 141.9 0 215 0 C215 77.55 215 155.1 215 235 C144.05 235 73.1 235 0 235 C0 231.7 0 228.4 0 225 C0.66 225.99 1.32 226.98 2 228 C4.82461385 231.54021319 6.20978792 232.86707017 10.74036407 233.6292057 C12.22611274 233.65660506 13.71252126 233.65660698 15.19836426 233.63491821 C16.01990258 233.64271817 16.8414409 233.65051812 17.68787432 233.65855443 C20.43885768 233.67848751 23.18845967 233.6627052 25.93945312 233.64697266 C27.91235664 233.6537482 29.88525384 233.66265098 31.85813904 233.67352295 C37.21560336 233.69633023 42.57258663 233.6874739 47.93005943 233.67162752 C53.5344816 233.65897603 59.13886236 233.67070655 64.74328613 233.67855835 C74.15526735 233.68765708 83.56705246 233.67566105 92.97900391 233.65185547 C103.86333002 233.62464388 114.74718786 233.63345788 125.63150263 233.6609875 C134.97347096 233.68367111 144.31529825 233.68688227 153.65728521 233.67379415 C159.23820008 233.66599557 164.81889478 233.66496936 170.39979553 233.68147659 C175.64649966 233.69591109 180.89259956 233.68591795 186.13923836 233.65700531 C188.06575072 233.65038909 189.99231386 233.6523013 191.91880608 233.66331863 C194.54710436 233.67696467 197.17346149 233.65987096 199.80163574 233.63491821 C200.56574154 233.64607182 201.32984735 233.65722543 202.11710787 233.66871703 C205.81491955 233.60052402 207.87612386 233.08250156 210.97271538 231.02017021 C213.72799977 226.9154541 213.69907355 223.88509302 213.63491821 219.0423584 C213.64271817 218.13914903 213.65051812 217.23593966 213.65855443 216.30536032 C213.67850249 213.27802875 213.66269866 210.25195033 213.64697266 207.22460938 C213.65374751 205.05466477 213.66264989 202.88472591 213.67352295 200.71479797 C213.69633833 194.82017513 213.68747043 188.92598931 213.67162752 183.03135872 C213.65898028 176.86639339 213.67070537 170.7014658 213.67855835 164.53649902 C213.68765831 154.18295565 213.67565778 143.82959053 213.65185547 133.47607422 C213.62464357 121.50106684 213.63345744 109.52669043 213.6609875 97.55168104 C213.68366756 87.27554156 213.68688399 76.99953031 213.67379415 66.72337389 C213.66599364 60.58355258 213.66497472 54.44393142 213.68147659 48.30412292 C213.69590586 42.53214249 213.68592722 36.7607115 213.65700531 30.98879051 C213.65038633 28.86877035 213.65230594 26.74870405 213.66331863 24.62870216 C213.67695324 21.73772159 213.65988322 18.84850905 213.63491821 15.9576416 C213.64607182 15.11571683 213.65722543 14.27379207 213.66871703 13.40635443 C213.60049669 9.34254963 213.29157176 7.43437232 210.97271538 3.97982979 C207.20712606 1.47194559 204.18037634 1.30116556 199.80163574 1.36508179 C198.98009742 1.35728183 198.1585591 1.34948188 197.31212568 1.34144557 C194.56114232 1.32151249 191.81154033 1.3372948 189.06054688 1.35302734 C187.08764336 1.3462518 185.11474616 1.33734902 183.14186096 1.32647705 C177.78439664 1.30366977 172.42741337 1.3125261 167.06994057 1.32837248 C161.4655184 1.34102397 155.86113764 1.32929345 150.25671387 1.32144165 C140.84473265 1.31234292 131.43294754 1.32433895 122.02099609 1.34814453 C111.13666998 1.37535612 100.25281214 1.36654212 89.36849737 1.3390125 C80.02652904 1.31632889 70.68470175 1.31311773 61.34271479 1.32620585 C55.76179992 1.33400443 50.18110522 1.33503064 44.60020447 1.31852341 C39.35350034 1.30408891 34.10740044 1.31408205 28.86076164 1.34299469 C26.93424928 1.34961091 25.00768614 1.3476987 23.08119392 1.33668137 C20.45289564 1.32303533 17.82653851 1.34012904 15.19836426 1.36508179 C14.43425846 1.35392818 13.67015265 1.34277457 12.88289213 1.33128297 C8.90279631 1.40468171 7.2082128 1.82587512 4.11260223 4.41468239 C3.4154435 5.2678372 2.71828476 6.12099201 2 7 C1.34 7.66 0.68 8.32 0 9 C0 6.03 0 3.06 0 0 Z " fill="#6D6D89" transform="translate(0,0)"/>
<path d="M0 0 C0.99 0 1.98 0 3 0 C3 44.55 3 89.1 3 135 C2.01 135 1.02 135 0 135 C0 90.45 0 45.9 0 0 Z " fill="#0C0C57" transform="translate(106,67)"/>
<path d="M0 0 C70.95 0 141.9 0 215 0 C215 2.97 215 5.94 215 9 C214.401875 8.21625 213.80375 7.4325 213.1875 6.625 C211.08914751 3.85425677 211.08914751 3.85425677 208 2 C205.31329508 1.80004099 202.72960143 1.71741545 200.04214478 1.72584534 C199.22231531 1.72060866 198.40248584 1.71537198 197.55781305 1.70997661 C194.80102572 1.69493263 192.04442327 1.6942705 189.28759766 1.69360352 C187.31499415 1.68598501 185.34239362 1.67755805 183.36979675 1.66838074 C178.00410163 1.64639897 172.63846351 1.63763195 167.27272844 1.63255429 C163.92230455 1.6289152 160.57189569 1.6226775 157.22147751 1.6155529 C145.53826997 1.59104607 133.85510692 1.57800375 122.171875 1.57446289 C111.27285906 1.57082619 100.37412448 1.5409242 89.47519457 1.49905831 C80.124805 1.46439693 70.77450886 1.44891517 61.42405546 1.44821686 C55.8363644 1.44742265 50.24895981 1.4386182 44.66133499 1.41021919 C39.40650934 1.38410962 34.15220912 1.38179361 28.8973484 1.39787483 C26.96759079 1.39969497 25.03780346 1.39294793 23.10811043 1.37705612 C20.47538758 1.35669467 17.84452035 1.36708786 15.21182251 1.38526917 C14.06361745 1.36546921 14.06361745 1.36546921 12.89221632 1.34526926 C8.90665707 1.40822991 7.21273348 1.8222393 4.11176109 4.41342068 C3.41487993 5.26699185 2.71799877 6.12056303 2 7 C1.34 7.66 0.68 8.32 0 9 C0 6.03 0 3.06 0 0 Z " fill="#8B8BA0" transform="translate(0,0)"/>
<path d="M0 0 C1.9375 1 1.9375 1 3 3 C3.52960415 6.58042244 3.65886567 9.75978228 1.9375 13 C-1.13215135 14.58433618 -3.61681143 14.36248449 -7 14 C-8.9375 13 -8.9375 13 -10 11 C-10.52960415 7.41957756 -10.65886567 4.24021772 -8.9375 1 C-5.86784865 -0.58433618 -3.38318857 -0.36248449 0 0 Z " fill="#EEE310" transform="translate(129,208)"/>
<path d="M0 0 C1.65 0 3.3 0 5 0 C5.33 2.64 5.66 5.28 6 8 C6.66 8 7.32 8 8 8 C8.33 5.36 8.66 2.72 9 0 C10.65 0 12.3 0 14 0 C14 4.62 14 9.24 14 14 C13.01 14 12.02 14 11 14 C10.67 12.35 10.34 10.7 10 9 C9.67 10.65 9.34 12.3 9 14 C7.0625 13.6875 7.0625 13.6875 5 13 C4.67 12.01 4.34 11.02 4 10 C3.67 11.32 3.34 12.64 3 14 C2.01 14 1.02 14 0 14 C0 9.38 0 4.76 0 0 Z " fill="#E9DE13" transform="translate(134,208)"/>
<path d="M0 0 C1.32 0 2.64 0 4 0 C5.32 2.31 6.64 4.62 8 7 C8.33 4.69 8.66 2.38 9 0 C9.99 0 10.98 0 12 0 C12 4.62 12 9.24 12 14 C10.68 14 9.36 14 8 14 C6.02 10.535 6.02 10.535 4 7 C3.67 9.31 3.34 11.62 3 14 C2.01 14 1.02 14 0 14 C0 9.38 0 4.76 0 0 Z " fill="#E5DB13" transform="translate(65,208)"/>
<path d="M0 0 C3.5 0.4375 3.5 0.4375 5.4375 1.9375 C5.788125 2.4325 6.13875 2.9275 6.5 3.4375 C3.42677456 4.34808531 0.69902639 4.52636184 -2.5 4.4375 C-2.5 6.4175 -2.5 8.3975 -2.5 10.4375 C0.47 10.9325 0.47 10.9325 3.5 11.4375 C3.5 10.7775 3.5 10.1175 3.5 9.4375 C2.51 9.4375 1.52 9.4375 0.5 9.4375 C0.5 8.4475 0.5 7.4575 0.5 6.4375 C2.48 6.4375 4.46 6.4375 6.5 6.4375 C6.5 9.0775 6.5 11.7175 6.5 14.4375 C-1.52638522 15.05491425 -1.52638522 15.05491425 -5.0625 12.8125 C-6.92583125 9.73395272 -7.0170119 7.98272444 -6.5 4.4375 C-4.86658084 0.78632776 -4.0205891 0.50257364 0 0 Z " fill="#F6EB0B" transform="translate(85.5,207.5625)"/>
<path d="M0 0 C3.3 0 6.6 0 10 0 C10 0.99 10 1.98 10 3 C7.69 3 5.38 3 3 3 C3 3.66 3 4.32 3 5 C5.31 5 7.62 5 10 5 C10 5.99 10 6.98 10 8 C7.69 8 5.38 8 3 8 C3 8.99 3 9.98 3 11 C5.31 11 7.62 11 10 11 C10 11.99 10 12.98 10 14 C6.7 14 3.4 14 0 14 C0 9.38 0 4.76 0 0 Z " fill="#D4C91D" transform="translate(53,208)"/>
<path d="M0 0 C1.32 0 2.64 0 4 0 C4.83764268 1.95649397 5.66999059 3.91525556 6.5 5.875 C6.9640625 6.96554688 7.428125 8.05609375 7.90625 9.1796875 C9 12 9 12 9 14 C7.68 13.67 6.36 13.34 5 13 C5 12.34 5 11.68 5 11 C3.02 11 1.04 11 -1 11 C-1.33 11.99 -1.66 12.98 -2 14 C-2.99 14 -3.98 14 -5 14 C-3.45730076 9.27934033 -1.92205381 4.58335908 0 0 Z " fill="#EBE012" transform="translate(154,208)"/>
<path d="M0 0 C1.32 0 2.64 0 4 0 C4.83764268 1.95649397 5.66999059 3.91525556 6.5 5.875 C6.9640625 6.96554688 7.428125 8.05609375 7.90625 9.1796875 C9 12 9 12 9 14 C7.68 13.67 6.36 13.34 5 13 C5 12.34 5 11.68 5 11 C3.02 11 1.04 11 -1 11 C-1.33 11.99 -1.66 12.98 -2 14 C-2.99 14 -3.98 14 -5 14 C-3.45730076 9.27934033 -1.92205381 4.58335908 0 0 Z " fill="#EBE011" transform="translate(98,208)"/>
<path d="M0 0 C4 1 4 1 6.25 4.0625 C7.11625 5.5165625 7.11625 5.5165625 8 7 C8.33 4.69 8.66 2.38 9 0 C9.66 0 10.32 0 11 0 C11 4.62 11 9.24 11 14 C10.01 14 9.02 14 8 14 C6.02 10.535 6.02 10.535 4 7 C3.67 9.31 3.34 11.62 3 14 C2.01 14 1.02 14 0 14 C0 9.38 0 4.76 0 0 Z " fill="#E9DE14" transform="translate(164,208)"/>
<path d="M0 0 C7.75 -0.125 7.75 -0.125 10 1 C10.125 3.875 10.125 3.875 10 7 C8 9 8 9 5.375 9.125 C4.59125 9.08375 3.8075 9.0425 3 9 C3 10.65 3 12.3 3 14 C2.01 14 1.02 14 0 14 C0 9.38 0 4.76 0 0 Z " fill="#FAEF07" transform="translate(40,208)"/>
<path d="M0 0 C1.32 0 2.64 0 4 0 C5.75 2 5.75 2 7 4 C7.99 2.68 8.98 1.36 10 0 C10.99 0.33 11.98 0.66 13 1 C12.360625 2.03125 11.72125 3.0625 11.0625 4.125 C9.18288629 7.38609658 8.36873469 10.22046944 8 14 C7.01 14 6.02 14 5 14 C4.89042969 13.40832031 4.78085938 12.81664062 4.66796875 12.20703125 C3.74085597 7.58654237 2.77648665 3.9123221 0 0 Z " fill="#EFE410" transform="translate(105,208)"/>
<path d="M0 0 C3.53571429 0.53571429 3.53571429 0.53571429 5 2 C5.125 5 5.125 5 5 8 C4 9 4 9 1.5 9.125 C-1 9 -1 9 -2 8 C-2.1875 5.0625 -2.1875 5.0625 -2 2 C-1.34 1.34 -0.68 0.68 0 0 Z " fill="#1A1A56" transform="translate(124,210)"/>
<path d="M0 0 C1.32 0 2.64 0 4 0 C4.66 1.65 5.32 3.3 6 5 C5.01 5.495 5.01 5.495 4 6 C3.53476937 7.89533342 3.53476937 7.89533342 3.375 10.0625 C3.25125 11.361875 3.1275 12.66125 3 14 C2.01 14 1.02 14 0 14 C0 9.38 0 4.76 0 0 Z " fill="#DCD316" transform="translate(65,208)"/>
<path d="M0 0 C0.66 0 1.32 0 2 0 C2 4.62 2 9.24 2 14 C1.01 14 0.02 14 -1 14 C-2.8125 11.75 -2.8125 11.75 -4 9 C-3.1875 6.6875 -3.1875 6.6875 -2 5 C-1.67 5.66 -1.34 6.32 -1 7 C-0.67 4.69 -0.34 2.38 0 0 Z " fill="#F6EC09" transform="translate(173,208)"/>
<path d="M0 0 C2.97 0.495 2.97 0.495 6 1 C7 4 7 4 6 7 C4.35 7 2.7 7 1 7 C1 8.65 1 10.3 1 12 C0.34 11.34 -0.32 10.68 -1 10 C-0.9765625 7.6171875 -0.9765625 7.6171875 -0.625 4.875 C-0.51414063 3.96492187 -0.40328125 3.05484375 -0.2890625 2.1171875 C-0.19367187 1.41851562 -0.09828125 0.71984375 0 0 Z " fill="#9D9531" transform="translate(42,210)"/>
<path d="M0 0 C1.98 0 3.96 0 6 0 C6 2.64 6 5.28 6 8 C4.35 8 2.7 8 1 8 C1 7.34 1 6.68 1 6 C0.01 5.67 -0.98 5.34 -2 5 C-0.35 5 1.3 5 3 5 C3 4.34 3 3.68 3 3 C2.01 3 1.02 3 0 3 C0 2.01 0 1.02 0 0 Z " fill="#E0D418" transform="translate(86,214)"/>
<path d="M0 0 C1.32 0 2.64 0 4 0 C4.99 2.97 5.98 5.94 7 9 C4.69 9 2.38 9 0 9 C0 6.03 0 3.06 0 0 Z " fill="#BFB623" transform="translate(154,208)"/>
<path d="M0 0 C1.32 0 2.64 0 4 0 C4.99 2.97 5.98 5.94 7 9 C4.69 9 2.38 9 0 9 C0 6.03 0 3.06 0 0 Z " fill="#BDB424" transform="translate(98,208)"/>
<path d="M0 0 C0.33 0 0.66 0 1 0 C1 3.3 1 6.6 1 10 C-2.3 10 -5.6 10 -9 10 C-8.01 9.34 -7.02 8.68 -6 8 C-2.19090197 4.53877143 -2.19090197 4.53877143 0 0 Z " fill="#F3F3F5" transform="translate(214,225)"/>
<path d="M0 0 C0.66 0 1.32 0 2 0 C2 4.62 2 9.24 2 14 C1.67 14 1.34 14 1 14 C0.67 11.03 0.34 8.06 0 5 C-2.31 5 -4.62 5 -7 5 C-7 4.34 -7 3.68 -7 3 C-4.69 3 -2.38 3 0 3 C0 2.01 0 1.02 0 0 Z " fill="#070A58" transform="translate(63,208)"/>
<path d="M0 0 C0.99 1.485 0.99 1.485 2 3 C3.6459651 4.68711423 5.31237149 6.3545622 7 8 C7.66 8.66 8.32 9.32 9 10 C6.03 10 3.06 10 0 10 C0 6.7 0 3.4 0 0 Z " fill="#F2F2F4" transform="translate(0,225)"/>
<path d="M0 0 C3.3 0 6.6 0 10 0 C10 2.97 10 5.94 10 9 C9.46375 8.236875 8.9275 7.47375 8.375 6.6875 C5.79794186 3.77135526 3.54185596 2.5294378 0 1 C0 0.67 0 0.34 0 0 Z " fill="#F7F7F9" transform="translate(205,0)"/>
<path d="M0 0 C2.97 0 5.94 0 9 0 C8.2575 0.556875 7.515 1.11375 6.75 1.6875 C4.08292005 3.93027178 2.08443768 6.22074975 0 9 C0 6.03 0 3.06 0 0 Z " fill="#F7F7F8" transform="translate(0,0)"/>
<path d="M0 0 C3.5625 0.3125 3.5625 0.3125 5.5 1.8125 C5.850625 2.3075 6.20125 2.8025 6.5625 3.3125 C3.17651171 4.35434255 0.09568313 4.54292499 -3.4375 4.3125 C-4.0975 3.6525 -4.7575 2.9925 -5.4375 2.3125 C-3.4375 0.3125 -3.4375 0.3125 0 0 Z " fill="#E1D715" transform="translate(85.4375,207.6875)"/>
<path d="M0 0 C2 3 2 3 2 7 C4.64 7 7.28 7 10 7 C10 7.66 10 8.32 10 9 C6.7 9 3.4 9 0 9 C0 6.03 0 3.06 0 0 Z " fill="#FAF006" transform="translate(53,213)"/>
<path d="M0 0 C2.0245738 1.93254772 3.42105792 3.63158688 5 6 C5.99 6.33 6.98 6.66 8 7 C8 7.66 8 8.32 8 9 C5.25913944 9.22223194 3.56036279 9.34781139 1.1875 7.875 C-0.49106106 5.22464043 -0.20450238 3.06753576 0 0 Z " fill="#F5EA0B" transform="translate(119,213)"/>
<path d="M0 0 C0.33 1.32 0.66 2.64 1 4 C1.66 4 2.32 4 3 4 C2.1875 5.9375 2.1875 5.9375 1 8 C0.01 8.33 -0.98 8.66 -2 9 C-2 8.34 -2 7.68 -2 7 C-2.99 6.67 -3.98 6.34 -5 6 C-3.68 5.67 -2.36 5.34 -1 5 C-0.67 3.35 -0.34 1.7 0 0 Z " fill="#DACF1B" transform="translate(129,213)"/>
<path d="M0 0 C1.485 0.99 1.485 0.99 3 2 C3.1875 5.125 3.1875 5.125 3 8 C2.34 8 1.68 8 1 8 C0.67 5.36 0.34 2.72 0 0 Z " fill="#FBEF08" transform="translate(129,209)"/>
</svg>
